<svg width="32" height="32" viewBox="0 0 32 32" fill="none" xmlns="http://www.w3.org/2000/svg">
<mask id="mask0_9_83" style="mask-type:alpha" maskUnits="userSpaceOnUse" x="0" y="0" width="32" height="32">
<rect width="32" height="32" fill="#D9D9D9"/>
</mask>
<g mask="url(#mask0_9_83)">
<path d="M15.9999 16C14.5333 16 13.2777 15.4778 12.2333 14.4333C11.1888 13.3889 10.6666 12.1333 10.6666 10.6666C10.6666 9.19998 11.1888 7.94442 12.2333 6.89998C13.2777 5.85554 14.5333 5.33331 15.9999 5.33331C17.4666 5.33331 18.7221 5.85554 19.7666 6.89998C20.811 7.94442 21.3333 9.19998 21.3333 10.6666C21.3333 12.1333 20.811 13.3889 19.7666 14.4333C18.7221 15.4778 17.4666 16 15.9999 16ZM5.33325 26.6666V22.9333C5.33325 22.1778 5.5277 21.4833 5.91659 20.85C6.30547 20.2166 6.82214 19.7333 7.46659 19.4C8.84436 18.7111 10.2444 18.1944 11.6666 17.85C13.0888 17.5055 14.5333 17.3333 15.9999 17.3333C17.4666 17.3333 18.911 17.5055 20.3333 17.85C21.7555 18.1944 23.1555 18.7111 24.5333 19.4C25.1777 19.7333 25.6944 20.2166 26.0833 20.85C26.4721 21.4833 26.6666 22.1778 26.6666 22.9333V26.6666H5.33325ZM7.99992 24H23.9999V22.9333C23.9999 22.6889 23.9388 22.4666 23.8166 22.2666C23.6944 22.0666 23.5333 21.9111 23.3333 21.8C22.1333 21.2 20.9221 20.75 19.6999 20.45C18.4777 20.15 17.2444 20 15.9999 20C14.7555 20 13.5221 20.15 12.2999 20.45C11.0777 20.75 9.86659 21.2 8.66659 21.8C8.46659 21.9111 8.30547 22.0666 8.18325 22.2666C8.06103 22.4666 7.99992 22.6889 7.99992 22.9333V24ZM15.9999 13.3333C16.7333 13.3333 17.361 13.0722 17.8833 12.55C18.4055 12.0278 18.6666 11.4 18.6666 10.6666C18.6666 9.93331 18.4055 9.30554 17.8833 8.78331C17.361 8.26109 16.7333 7.99998 15.9999 7.99998C15.2666 7.99998 14.6388 8.26109 14.1166 8.78331C13.5944 9.30554 13.3333 9.93331 13.3333 10.6666C13.3333 11.4 13.5944 12.0278 14.1166 12.55C14.6388 13.0722 15.2666 13.3333 15.9999 13.3333Z" fill="black"/>
</g>
</svg>
