<svg width="142" height="45" viewBox="0 0 142 45" fill="none" xmlns="http://www.w3.org/2000/svg">
<path d="M0.875 5.125V3.625C0.875 3 1.1875 2.6875 1.8125 2.6875H7.34375V1.1875C7.34375 0.5625 7.65625 0.25 8.28125 0.25H11.4688C12.0938 0.25 12.4062 0.5625 12.4062 1.1875V2.6875H20.1875C20.8125 2.6875 21.125 3 21.125 3.625V5.125C21.125 5.75 20.8125 6.0625 20.1875 6.0625H12.4062V7H17.375C19.875 7 21.125 8.25 21.125 10.75V16.75C21.125 19.25 19.875 20.5 17.375 20.5H15.125C14.5 20.5 14.1875 20.1875 14.1875 19.5625V18.0625C14.1875 17.4375 14.5 17.125 15.125 17.125C15.75 17.125 16.0625 16.8125 16.0625 16.1875V13.8438L12.4062 17.5V19.5625C12.4062 20.1875 12.0938 20.5 11.4688 20.5H4.625C2.125 20.5 0.875 19.25 0.875 16.75V10.75C0.875 8.25 2.125 7 4.625 7H7.34375V6.0625H1.8125C1.1875 6.0625 0.875 5.75 0.875 5.125ZM6.875 10.375C6.25 10.375 5.9375 10.6875 5.9375 11.3125V16.1875C5.9375 16.8125 6.25 17.125 6.875 17.125H7.34375V10.375H6.875ZM12.4062 12.625L14.6562 10.375H12.4062V12.625ZM24.875 6.0625V4.5625C24.875 3.9375 25.1875 3.625 25.8125 3.625H28.9531L29.8438 1.1875C30.0781 0.5625 30.5078 0.25 31.1328 0.25H34.3203C34.9453 0.25 35.1406 0.5625 34.9062 1.1875L34.0156 3.625H35C35.625 3.625 35.9375 3.9375 35.9375 4.5625V6.0625C35.9375 6.6875 35.625 7 35 7H32.7734L30.0312 14.5C29.7969 15.125 29.3672 15.4375 28.7422 15.4375H25.5547C24.9297 15.4375 24.7344 15.125 24.9688 14.5L27.7109 7H25.8125C25.1875 7 24.875 6.6875 24.875 6.0625ZM36.875 16.6562V14.5938H36.4062C36.0938 14.5938 35.9375 14.75 35.9375 15.0625V16.6562C35.9375 16.9688 36.0938 17.125 36.4062 17.125C36.7188 17.125 36.875 16.9688 36.875 16.6562ZM41.9375 16.75C41.9375 19.25 40.6875 20.5 38.1875 20.5H34.625C32.125 20.5 30.875 19.25 30.875 16.75V14.9688C30.875 12.4688 32.125 11.2188 34.625 11.2188H36.875V5.40625C36.875 4.78125 37.1875 4.46875 37.8125 4.46875H44.1875C44.8125 4.46875 45.125 4.78125 45.125 5.40625V6.90625C45.125 7.53125 44.8125 7.84375 44.1875 7.84375H41.9375V11.2188H44.1875C44.8125 11.2188 45.125 11.5312 45.125 12.1562V13.6562C45.125 14.2812 44.8125 14.5938 44.1875 14.5938H41.9375V16.75ZM48.9453 19.5625L52.0859 7.84375H49.8125C49.1875 7.84375 48.875 7.53125 48.875 6.90625V5.40625C48.875 4.78125 49.1875 4.46875 49.8125 4.46875H53L53.8672 1.1875C54.0547 0.5625 54.4609 0.25 55.0859 0.25H58.2734C58.8984 0.25 59.1172 0.5625 58.9297 1.1875L58.0625 4.46875H60.5938C61.2188 4.46875 61.5312 4.78125 61.5312 5.40625V7H67.25C67.875 7 68.1875 7.3125 68.1875 7.9375V9.4375C68.1875 10.0625 67.875 10.375 67.25 10.375H59C58.375 10.375 58.0625 10.0625 58.0625 9.4375V7.84375H57.1484L54.0078 19.5625C53.8203 20.1875 53.4141 20.5 52.7891 20.5H49.6016C48.9766 20.5 48.7578 20.1875 48.9453 19.5625ZM69.125 19.5625C69.125 20.1875 68.8125 20.5 68.1875 20.5H60.2188C57.7188 20.5 56.4688 19.25 56.4688 16.75V14.6875C56.4688 14.0625 56.7812 13.75 57.4062 13.75H60.5938C61.2188 13.75 61.5312 14.0625 61.5312 14.6875V16.1875C61.5312 16.8125 61.8438 17.125 62.4688 17.125H68.1875C68.8125 17.125 69.125 17.4375 69.125 18.0625V19.5625ZM89.375 20.5H87.125C86.5 20.5 86.1875 20.1875 86.1875 19.5625V18.0625C86.1875 17.4375 86.5 17.125 87.125 17.125C87.75 17.125 88.0625 16.8125 88.0625 16.1875V5.40625C88.0625 4.78125 87.75 4.46875 87.125 4.46875H85.0625V16.75C85.0625 19.25 83.8125 20.5 81.3125 20.5H76.625C74.125 20.5 72.875 19.25 72.875 16.75V4.84375C72.875 2.34375 74.125 1.09375 76.625 1.09375H89.375C91.875 1.09375 93.125 2.34375 93.125 4.84375V16.75C93.125 19.25 91.875 20.5 89.375 20.5ZM78.875 4.46875C78.25 4.46875 77.9375 4.78125 77.9375 5.40625V16.1875C77.9375 16.8125 78.25 17.125 78.875 17.125H79.0625C79.6875 17.125 80 16.8125 80 16.1875V4.46875H78.875ZM3.40625 43.5625V42.0625C3.40625 41.4375 3.71875 41.125 4.34375 41.125H12.3125C14.8125 41.125 16.0625 39.875 16.0625 37.375V30.4141C16.7969 30.8672 17.625 31.0938 18.5469 31.0938C19.5156 31.0938 20.375 30.8438 21.125 30.3438V37.9375C21.125 42.3125 18.9375 44.5 14.5625 44.5H4.34375C3.71875 44.5 3.40625 44.1875 3.40625 43.5625ZM13.8125 26.3594C13.8125 26.7969 13.8672 27.2188 13.9766 27.625H1.8125C1.1875 27.625 0.875 27.3125 0.875 26.6875V25.1875C0.875 24.5625 1.1875 24.25 1.8125 24.25H14.2812C13.9688 24.8906 13.8125 25.5938 13.8125 26.3594ZM22.5312 26.3594C22.5312 27.4688 22.1406 28.4141 21.3594 29.1953C20.5938 29.9609 19.6562 30.3438 18.5469 30.3438C17.4375 30.3438 16.4922 29.9609 15.7109 29.1953C14.9453 28.4141 14.5625 27.4688 14.5625 26.3594C14.5625 25.25 14.9453 24.3125 15.7109 23.5469C16.4922 22.7656 17.4375 22.375 18.5469 22.375C19.6562 22.375 20.5938 22.7656 21.3594 23.5469C22.1406 24.3125 22.5312 25.25 22.5312 26.3594ZM19.5312 26.3594C19.5312 26.0781 19.4375 25.8438 19.25 25.6562C19.0625 25.4688 18.8281 25.375 18.5469 25.375C18.2656 25.375 18.0312 25.4688 17.8438 25.6562C17.6562 25.8438 17.5625 26.0781 17.5625 26.3594C17.5625 26.6406 17.6562 26.875 17.8438 27.0625C18.0312 27.25 18.2656 27.3438 18.5469 27.3438C18.8281 27.3438 19.0625 27.25 19.25 27.0625C19.4375 26.875 19.5312 26.6406 19.5312 26.3594ZM24.875 25.1875C24.875 24.5625 25.1875 24.25 25.8125 24.25H44.1875C44.8125 24.25 45.125 24.5625 45.125 25.1875V43.5625C45.125 44.1875 44.8125 44.5 44.1875 44.5H25.8125C25.1875 44.5 24.875 44.1875 24.875 43.5625V25.1875ZM29.9375 27.625V41.125H40.0625V27.625H29.9375ZM51.4062 43.5625V42.0625C51.4062 41.4375 51.7188 41.125 52.3438 41.125H60.3125C62.8125 41.125 64.0625 39.875 64.0625 37.375V27.625H49.8125C49.1875 27.625 48.875 27.3125 48.875 26.6875V25.1875C48.875 24.5625 49.1875 24.25 49.8125 24.25H68.1875C68.8125 24.25 69.125 24.5625 69.125 25.1875V37.9375C69.125 42.3125 66.9375 44.5 62.5625 44.5H52.3438C51.7188 44.5 51.4062 44.1875 51.4062 43.5625ZM75.4062 37.4688V36.3438C75.4062 35.875 75.6406 35.6406 76.1094 35.6406H86.0938C86.5625 35.6406 86.7969 35.4062 86.7969 34.9375V30.0156C86.7969 29.5469 87.0312 29.3125 87.5 29.3125H89.8906C90.3594 29.3125 90.5938 29.5469 90.5938 30.0156V35.3594C90.5938 37.2344 89.6562 38.1719 87.7812 38.1719H84.8984V43.7969C84.8984 44.2656 84.6641 44.5 84.1953 44.5H81.8047C81.3359 44.5 81.1016 44.2656 81.1016 43.7969V38.1719H76.1094C75.6406 38.1719 75.4062 37.9375 75.4062 37.4688ZM96.875 35.125V33.625C96.875 33 97.1875 32.6875 97.8125 32.6875H116.188C116.812 32.6875 117.125 33 117.125 33.625V35.125C117.125 35.75 116.812 36.0625 116.188 36.0625H97.8125C97.1875 36.0625 96.875 35.75 96.875 35.125ZM120.875 43.5625V42.0625C120.875 41.4375 121.188 41.125 121.812 41.125H122.281C122.906 41.125 123.219 40.8125 123.219 40.1875V24.7188C123.219 24.0938 123.531 23.7812 124.156 23.7812H127.344C127.969 23.7812 128.281 24.0938 128.281 24.7188V40.75C128.281 43.25 127.031 44.5 124.531 44.5H121.812C121.188 44.5 120.875 44.1875 120.875 43.5625ZM134.281 24.7188V41.125H135.125C135.75 41.125 136.062 40.8125 136.062 40.1875V31.9375C136.062 31.3125 136.375 31 137 31H140.188C140.812 31 141.125 31.3125 141.125 31.9375V40.75C141.125 43.25 139.875 44.5 137.375 44.5H130.156C129.531 44.5 129.219 44.1875 129.219 43.5625V24.7188C129.219 24.0938 129.531 23.7812 130.156 23.7812H133.344C133.969 23.7812 134.281 24.0938 134.281 24.7188Z" fill="black"/>
</svg>
