<svg width="214" height="47" viewBox="0 0 214 47" fill="none" xmlns="http://www.w3.org/2000/svg">
<path d="M0.875 8.0625V6.5625C0.875 5.9375 1.1875 5.625 1.8125 5.625H6.875V3.1875C6.875 2.5625 7.1875 2.25 7.8125 2.25H11C11.625 2.25 11.9375 2.5625 11.9375 3.1875V5.625H13.5312C14.1562 5.625 14.4688 5.9375 14.4688 6.5625V8.0625C14.4688 8.6875 14.1562 9 13.5312 9H11.9375V10.6875H17.375C19.875 10.6875 21.125 11.9375 21.125 14.4375V18.75C21.125 21.25 19.875 22.5 17.375 22.5H14.1875C13.5625 22.5 13.25 22.1875 13.25 21.5625V20.0625C13.25 19.4375 13.5625 19.125 14.1875 19.125H15.125C15.75 19.125 16.0625 18.8125 16.0625 18.1875V15C16.0625 14.375 15.75 14.0625 15.125 14.0625H11.9375V18.75C11.9375 21.25 10.6875 22.5 8.1875 22.5H4.625C2.125 22.5 0.875 21.25 0.875 18.75V14.4375C0.875 11.9375 2.125 10.6875 4.625 10.6875H6.875V9H1.8125C1.1875 9 0.875 8.6875 0.875 8.0625ZM6.875 18.6562V14.0625H6.40625C6.09375 14.0625 5.9375 14.2188 5.9375 14.5312V18.6562C5.9375 18.9688 6.09375 19.125 6.40625 19.125C6.71875 19.125 6.875 18.9688 6.875 18.6562ZM16.0391 8.8125L15.1484 3.1875C15.0391 2.5625 15.2969 2.25 15.9219 2.25H19.1094C19.7344 2.25 20.1016 2.5625 20.2109 3.1875L21.1016 8.8125C21.2109 9.4375 20.9531 9.75 20.3281 9.75H17.1406C16.5156 9.75 16.1484 9.4375 16.0391 8.8125ZM26.4688 21.5625V16.0781L25.8125 16.8516C25.1875 17.5703 24.875 17.6172 24.875 16.9922V13.9922C24.875 13.3672 25.1875 12.6953 25.8125 11.9766L29.0938 8.15625H25.8125C25.1875 8.15625 24.875 7.84375 24.875 7.21875V5.71875C24.875 5.09375 25.1875 4.78125 25.8125 4.78125H26.4688V2.71875C26.4688 2.09375 26.7812 1.78125 27.4062 1.78125H30.5938C31.2188 1.78125 31.5312 2.09375 31.5312 2.71875V4.78125H32.1875C32.8125 4.78125 33.125 5.09375 33.125 5.71875V7.38281C33.125 8.00781 32.8125 8.67969 32.1875 9.39844L31.0859 10.6875L32.1875 11.9766C32.8125 12.6953 33.125 13.3672 33.125 13.9922V16.9922C33.125 17.6172 32.8125 17.5703 32.1875 16.8516L31.5312 16.0781V21.5625C31.5312 22.1875 31.2188 22.5 30.5938 22.5H27.4062C26.7812 22.5 26.4688 22.1875 26.4688 21.5625ZM33.125 21.5625L34.5312 13.2188C33.9062 13.2188 33.5938 12.9062 33.5938 12.2812V3.1875C33.5938 2.5625 33.9062 2.25 34.5312 2.25H44.1875C44.8125 2.25 45.125 2.5625 45.125 3.1875V12.2812C45.125 12.9062 44.8125 13.2188 44.1875 13.2188V19.125C44.8125 19.125 45.125 19.4375 45.125 20.0625V21.5625C45.125 22.1875 44.8125 22.5 44.1875 22.5H40.5312C39.9062 22.5 39.5938 22.1875 39.5938 21.5625V13.2188H39.125L37.7188 21.5625C37.625 22.1875 37.2656 22.5 36.6406 22.5H33.9219C33.2969 22.5 33.0312 22.1875 33.125 21.5625ZM38.6562 9.84375H40.0625V5.625H38.6562V9.84375ZM60.4062 4.03125C60.4062 3.40625 60.7188 3.09375 61.3438 3.09375H65.375C67.875 3.09375 69.125 4.34375 69.125 6.84375V19.875C69.125 20.5 68.8125 20.8125 68.1875 20.8125H65C64.375 20.8125 64.0625 20.5 64.0625 19.875V7.40625C64.0625 6.78125 63.75 6.46875 63.125 6.46875H61.3438C60.7188 6.46875 60.4062 6.15625 60.4062 5.53125V4.03125ZM57.5938 21.5625C57.5938 22.1875 57.2812 22.5 56.6562 22.5H52.625C50.125 22.5 48.875 21.25 48.875 18.75V4.03125C48.875 3.40625 49.1875 3.09375 49.8125 3.09375H53C53.625 3.09375 53.9375 3.40625 53.9375 4.03125V18.1875C53.9375 18.8125 54.25 19.125 54.875 19.125H56.6562C57.2812 19.125 57.5938 19.4375 57.5938 20.0625V21.5625ZM72.875 21.5625V20.0625C72.875 19.4375 73.1875 19.125 73.8125 19.125H82.0625C82.6875 19.125 83 18.8125 83 18.1875V14.4375L73.8125 9.89062C73.1875 9.59375 72.875 9.13281 72.875 8.50781V6.25781C72.875 5.63281 73.1875 5.46875 73.8125 5.76562L83 10.3125V2.71875C83 2.09375 83.3125 1.78125 83.9375 1.78125H87.125C87.75 1.78125 88.0625 2.09375 88.0625 2.71875V12.8203L92.1875 14.8594C92.8125 15.1562 93.125 15.6172 93.125 16.2422V18.4922C93.125 19.1172 92.8125 19.2812 92.1875 18.9844L88.0625 16.9453V18.75C88.0625 21.25 86.8125 22.5 84.3125 22.5H73.8125C73.1875 22.5 72.875 22.1875 72.875 21.5625ZM101.305 21.7969V20.6719C101.305 20.2031 101.539 19.9688 102.008 19.9688H110.094C110.562 19.9688 110.797 19.7344 110.797 19.2656V8.01562C110.797 7.54688 111.031 7.3125 111.5 7.3125H113.891C114.359 7.3125 114.594 7.54688 114.594 8.01562V19.6875C114.594 21.5625 113.656 22.5 111.781 22.5H102.008C101.539 22.5 101.305 22.2656 101.305 21.7969ZM99.4062 14.2031V8.01562C99.4062 7.54688 99.6406 7.3125 100.109 7.3125H102.5C102.969 7.3125 103.203 7.54688 103.203 8.01562V14.2031C103.203 14.6719 102.969 14.9062 102.5 14.9062H100.109C99.6406 14.9062 99.4062 14.6719 99.4062 14.2031ZM105.102 14.2031V8.01562C105.102 7.54688 105.336 7.3125 105.805 7.3125H108.195C108.664 7.3125 108.898 7.54688 108.898 8.01562V14.2031C108.898 14.6719 108.664 14.9062 108.195 14.9062H105.805C105.336 14.9062 105.102 14.6719 105.102 14.2031ZM120.875 11.5781V9.70312C120.875 9.07812 121.188 8.71094 121.812 8.60156L125.938 7.94531V2.71875C125.938 2.09375 126.25 1.78125 126.875 1.78125H130.062C130.688 1.78125 131 2.09375 131 2.71875V7.125L140.188 5.64844C140.812 5.53906 141.125 5.79688 141.125 6.42188V14.8125C141.125 15.4375 140.812 15.75 140.188 15.75H137C136.375 15.75 136.062 15.4375 136.062 14.8125V10.0547L131 10.875V18.1875C131 18.8125 131.312 19.125 131.938 19.125H140.188C140.812 19.125 141.125 19.4375 141.125 20.0625V21.5625C141.125 22.1875 140.812 22.5 140.188 22.5H129.688C127.188 22.5 125.938 21.25 125.938 18.75V11.6953L121.812 12.3516C121.188 12.4609 120.875 12.2031 120.875 11.5781ZM144.875 13.125V11.625C144.875 11 145.188 10.6875 145.812 10.6875H164.188C164.812 10.6875 165.125 11 165.125 11.625V13.125C165.125 13.75 164.812 14.0625 164.188 14.0625H145.812C145.188 14.0625 144.875 13.75 144.875 13.125ZM168.875 21.5625V20.0625C168.875 19.4375 169.188 19.125 169.812 19.125H183.125C183.75 19.125 184.062 18.8125 184.062 18.1875V6.65625H189.125V18.75C189.125 21.25 187.875 22.5 185.375 22.5H169.812C169.188 22.5 168.875 22.1875 168.875 21.5625ZM168.875 4.6875V3.1875C168.875 2.5625 169.188 2.25 169.812 2.25H178.062C178.688 2.25 179 2.5625 179 3.1875V4.6875C179 5.3125 178.688 5.625 178.062 5.625H169.812C169.188 5.625 168.875 5.3125 168.875 4.6875ZM168.875 11.4375V9.9375C168.875 9.3125 169.188 9 169.812 9H178.062C178.688 9 179 9.3125 179 9.9375V11.4375C179 12.0625 178.688 12.375 178.062 12.375H169.812C169.188 12.375 168.875 12.0625 168.875 11.4375ZM190.531 4.96875C190.531 5.59375 190.219 5.90625 189.594 5.90625H187.812C187.188 5.90625 186.875 5.59375 186.875 4.96875V1.3125C186.875 0.6875 187.188 0.375 187.812 0.375H189.594C190.219 0.375 190.531 0.6875 190.531 1.3125V4.96875ZM185.938 4.96875C185.938 5.59375 185.625 5.90625 185 5.90625H183.219C182.594 5.90625 182.281 5.59375 182.281 4.96875V1.3125C182.281 0.6875 182.594 0.375 183.219 0.375H185C185.625 0.375 185.938 0.6875 185.938 1.3125V4.96875ZM192.875 7.21875V5.71875C192.875 5.09375 193.188 4.78125 193.812 4.78125H198.688L199.742 3.1875C200.164 2.5625 200.688 2.25 201.312 2.25H204.875C205.5 2.25 205.602 2.5625 205.18 3.1875L204.125 4.78125H211.062C211.688 4.78125 212 5.09375 212 5.71875V7.21875C212 7.84375 211.688 8.15625 211.062 8.15625H201.875L201.312 9H205.25C207.344 9 208.562 9.875 208.906 11.625L212.188 10.7344C212.812 10.5625 213.125 10.7891 213.125 11.4141V13.2891C213.125 13.9141 212.812 14.3125 212.188 14.4844L209 15.3516V17.25C209 17.875 208.688 18.1875 208.062 18.1875H204.875C204.25 18.1875 203.938 17.875 203.938 17.25V16.7109L202.531 17.0859C202.219 17.1797 202.062 17.3828 202.062 17.6953V18.1875C202.062 18.8125 202.375 19.125 203 19.125H210.781C211.406 19.125 211.719 19.4375 211.719 20.0625V21.5625C211.719 22.1875 211.406 22.5 210.781 22.5H200.75C198.25 22.5 197 21.25 197 18.75V17.6484C197 15.7891 197.844 14.625 199.531 14.1562L203.891 12.9609C203.797 12.5703 203.5 12.375 203 12.375H199.062L198.57 13.125C198.148 13.75 197.625 14.0625 197 14.0625H193.438C192.812 14.0625 192.711 13.75 193.133 13.125L196.438 8.15625H193.812C193.188 8.15625 192.875 7.84375 192.875 7.21875ZM0.875 28.2891V26.4141C0.875 25.7891 1.1875 25.625 1.8125 25.9219L5.46875 27.7031C6.09375 28 6.40625 28.4609 6.40625 29.0859V30.9609C6.40625 31.5859 6.09375 31.75 5.46875 31.4531L1.8125 29.6719C1.1875 29.375 0.875 28.9141 0.875 28.2891ZM0.875 35.4375V33.9375C0.875 33.3125 1.1875 33 1.8125 33H5.46875C6.09375 33 6.40625 33.3125 6.40625 33.9375V42.1875C6.40625 42.8125 6.71875 43.125 7.34375 43.125H20.1875C20.8125 43.125 21.125 43.4375 21.125 44.0625V45.5625C21.125 46.1875 20.8125 46.5 20.1875 46.5H6.03125C4.6875 46.5 3.70312 46.1328 3.07812 45.3984L1.8125 46.2422C1.1875 46.6641 0.875 46.5625 0.875 45.9375V43.6875C0.875 43.0625 1.1875 42.5391 1.8125 42.1172L2.28125 41.8125V36.375H1.8125C1.1875 36.375 0.875 36.0625 0.875 35.4375ZM6.875 31.2188V29.7188C6.875 29.0938 7.1875 28.7812 7.8125 28.7812H8.04688L7.01562 26.7188C6.71875 26.0938 6.88281 25.7812 7.50781 25.7812H10.6953C11.3203 25.7812 11.7812 26.0938 12.0781 26.7188L13.1094 28.7812H14.8906L15.9219 26.7188C16.2188 26.0938 16.6797 25.7812 17.3047 25.7812H20.4922C21.1172 25.7812 21.2812 26.0938 20.9844 26.7188L19.9531 28.7812H20.1875C20.8125 28.7812 21.125 29.0938 21.125 29.7188V31.2188C21.125 31.8438 20.8125 32.1562 20.1875 32.1562H16.5312V33.8438H20.1875C20.8125 33.8438 21.125 34.1562 21.125 34.7812V36.2812C21.125 36.9062 20.8125 37.2188 20.1875 37.2188H17.4922L20.1875 38.7188C20.8125 39.0781 21.125 39.5703 21.125 40.1953V42.0703C21.125 42.6953 20.8125 42.8281 20.1875 42.4688L14 39.0469L7.8125 42.4688C7.1875 42.8281 6.875 42.6953 6.875 42.0703V40.1953C6.875 39.5703 7.1875 39.0781 7.8125 38.7188L10.5078 37.2188H7.8125C7.1875 37.2188 6.875 36.9062 6.875 36.2812V34.7812C6.875 34.1562 7.1875 33.8438 7.8125 33.8438H11.4688V32.1562H7.8125C7.1875 32.1562 6.875 31.8438 6.875 31.2188ZM24.875 36.2812V34.7812C24.875 34.1562 25.1875 33.8438 25.8125 33.8438H26.2812C26.5938 33.8438 26.75 33.6875 26.75 33.375V26.7188C26.75 26.0938 27.0625 25.7812 27.6875 25.7812H30.875C31.5 25.7812 31.8125 26.0938 31.8125 26.7188V33.4688C31.8125 34.7188 31.5 35.6562 30.875 36.2812V45.5625C30.875 46.1875 30.5625 46.5 29.9375 46.5H26.75C26.125 46.5 25.8125 46.1875 25.8125 45.5625V37.2188C25.1875 37.2188 24.875 36.9062 24.875 36.2812ZM37.3438 42.6562V43.5H40.0625V42.6562H37.3438ZM32.75 28.0312V27.1875C32.75 26.5625 33.0625 26.25 33.6875 26.25H43.7188C44.3438 26.25 44.6562 26.5625 44.6562 27.1875V28.0312C44.6562 28.6562 44.3438 28.9688 43.7188 28.9688H33.6875C33.0625 28.9688 32.75 28.6562 32.75 28.0312ZM32.2812 31.5938V30.4688C32.2812 29.8438 32.5938 29.5312 33.2188 29.5312H44.1875C44.8125 29.5312 45.125 29.8438 45.125 30.4688V31.5938C45.125 32.2188 44.8125 32.5312 44.1875 32.5312H33.2188C32.5938 32.5312 32.2812 32.2188 32.2812 31.5938ZM32.75 34.875V34.0312C32.75 33.4062 33.0625 33.0938 33.6875 33.0938H43.7188C44.3438 33.0938 44.6562 33.4062 44.6562 34.0312V34.875C44.6562 35.5 44.3438 35.8125 43.7188 35.8125H33.6875C33.0625 35.8125 32.75 35.5 32.75 34.875ZM32.75 38.1562V37.3125C32.75 36.6875 33.0625 36.375 33.6875 36.375H43.7188C44.3438 36.375 44.6562 36.6875 44.6562 37.3125V38.1562C44.6562 38.7812 44.3438 39.0938 43.7188 39.0938H33.6875C33.0625 39.0938 32.75 38.7812 32.75 38.1562ZM32.2812 40.5938C32.2812 39.9688 32.5938 39.6562 33.2188 39.6562H44.1875C44.8125 39.6562 45.125 39.9688 45.125 40.5938V45.5625C45.125 46.1875 44.8125 46.5 44.1875 46.5H33.2188C32.5938 46.5 32.2812 46.1875 32.2812 45.5625V40.5938ZM61.8594 43.125C62.4844 43.125 62.7969 42.8125 62.7969 42.1875V37.3125C62.7969 36.6875 63.1094 36.375 63.7344 36.375H66.9219C67.5469 36.375 67.8594 36.6875 67.8594 37.3125V42.75C67.8594 45.25 66.6094 46.5 64.1094 46.5H53.8906C51.3906 46.5 50.1406 45.25 50.1406 42.75V27.1875C50.1406 26.5625 50.4531 26.25 51.0781 26.25H54.2656C54.8906 26.25 55.2031 26.5625 55.2031 27.1875V42.1875C55.2031 42.8125 55.5156 43.125 56.1406 43.125H61.8594ZM80.4688 27.1875C80.4688 26.5625 80.7812 26.25 81.4062 26.25H84.5938C85.2188 26.25 85.5312 26.5625 85.5312 27.1875V29.625H91.25C91.875 29.625 92.1875 29.9375 92.1875 30.5625V32.0625C92.1875 32.6875 91.875 33 91.25 33H85.5312V37.4297L92.1875 40.1953C92.8125 40.4609 93.125 40.9062 93.125 41.5312V43.4062C93.125 44.0312 92.8125 44.2109 92.1875 43.9453L85.5312 41.1797V42.75C85.5312 45.25 84.2812 46.5 81.7812 46.5H76.625C74.125 46.5 72.875 45.25 72.875 42.75V40.9688C72.875 38.4688 74.125 37.2188 76.625 37.2188H80.4688V27.1875ZM80.4688 42.6562V41.0625C80.4688 40.75 80.3125 40.5938 80 40.5938H78.4062C78.0938 40.5938 77.9375 40.75 77.9375 41.0625V42.6562C77.9375 42.9688 78.0938 43.125 78.4062 43.125H80C80.3125 43.125 80.4688 42.9688 80.4688 42.6562ZM112.109 46.5H100.953C100.328 46.5 100.016 46.1875 100.016 45.5625V44.0625C100.016 43.4375 100.328 43.125 100.953 43.125H109.859C110.484 43.125 110.797 42.8125 110.797 42.1875V35.625C110.797 35 110.484 34.6875 109.859 34.6875H99.0781C98.4531 34.6875 98.1406 34.375 98.1406 33.75V32.25C98.1406 31.625 98.4531 31.3125 99.0781 31.3125H112.109C114.609 31.3125 115.859 32.5625 115.859 35.0625V42.75C115.859 45.25 114.609 46.5 112.109 46.5ZM100.672 28.6875V27.1875C100.672 26.5625 100.984 26.25 101.609 26.25H112.391C113.016 26.25 113.328 26.5625 113.328 27.1875V28.6875C113.328 29.3125 113.016 29.625 112.391 29.625H101.609C100.984 29.625 100.672 29.3125 100.672 28.6875ZM128.469 27.1875C128.469 26.5625 128.781 26.25 129.406 26.25H132.594C133.219 26.25 133.531 26.5625 133.531 27.1875V40.0312C133.531 40.6562 133.219 40.9688 132.594 40.9688H129.406C128.781 40.9688 128.469 40.6562 128.469 40.0312V27.1875ZM128.469 43.3125C128.469 42.6875 128.781 42.375 129.406 42.375H132.594C133.219 42.375 133.531 42.6875 133.531 43.3125V45.5625C133.531 46.1875 133.219 46.5 132.594 46.5H129.406C128.781 46.5 128.469 46.1875 128.469 45.5625V43.3125Z" fill="black"/>
</svg>
