<svg width="214" height="46" viewBox="0 0 214 46" fill="none" xmlns="http://www.w3.org/2000/svg">
<path d="M15.9688 21.5H13.7188C13.0938 21.5 12.7812 21.1875 12.7812 20.5625V19.0625C12.7812 18.4375 13.0938 18.125 13.7188 18.125C14.3438 18.125 14.6562 17.8125 14.6562 17.1875V11.375H11.9375V17.75C11.9375 20.25 10.6875 21.5 8.1875 21.5H4.625C2.125 21.5 0.875 20.25 0.875 17.75V11.75C0.875 9.25 2.125 8 4.625 8H6.875V4.625H1.8125C1.1875 4.625 0.875 4.3125 0.875 3.6875V2.1875C0.875 1.5625 1.1875 1.25 1.8125 1.25H11C11.625 1.25 11.9375 1.5625 11.9375 2.1875V8H14.6562V5.5625C14.6562 4.9375 14.9688 4.625 15.5938 4.625H18.7812C19.4062 4.625 19.7188 4.9375 19.7188 5.5625V8H20.1875C20.8125 8 21.125 8.3125 21.125 8.9375V10.4375C21.125 11.0625 20.8125 11.375 20.1875 11.375H19.7188V17.75C19.7188 20.25 18.4688 21.5 15.9688 21.5ZM6.875 17.6562V11.375H6.40625C6.09375 11.375 5.9375 11.5312 5.9375 11.8438V17.6562C5.9375 17.9688 6.09375 18.125 6.40625 18.125C6.71875 18.125 6.875 17.9688 6.875 17.6562ZM24.9453 20.5625L29.8672 2.1875C30.0547 1.5625 30.4609 1.25 31.0859 1.25H34.2734C34.8984 1.25 35.1172 1.5625 34.9297 2.1875L32.9141 9.6875H35.375C37.75 9.6875 39 10.8125 39.125 13.0625V17.1875C39.125 17.8125 39.4375 18.125 40.0625 18.125H44.1875C44.8125 18.125 45.125 18.4375 45.125 19.0625V20.5625C45.125 21.1875 44.8125 21.5 44.1875 21.5H37.8125C35.3125 21.5 34.0625 20.25 34.0625 17.75V14C34.0625 13.375 33.75 13.0625 33.125 13.0625H32.0234L30.0078 20.5625C29.8203 21.1875 29.4141 21.5 28.7891 21.5H25.6016C24.9766 21.5 24.7578 21.1875 24.9453 20.5625ZM48.875 7.0625V5.5625C48.875 4.9375 49.1875 4.625 49.8125 4.625H52.9531L53.8438 2.1875C54.0781 1.5625 54.5078 1.25 55.1328 1.25H58.3203C58.9453 1.25 59.1406 1.5625 58.9062 2.1875L58.0156 4.625H59C59.625 4.625 59.9375 4.9375 59.9375 5.5625V7.0625C59.9375 7.6875 59.625 8 59 8H56.7734L54.0312 15.5C53.7969 16.125 53.3672 16.4375 52.7422 16.4375H49.5547C48.9297 16.4375 48.7344 16.125 48.9688 15.5L51.7109 8H49.8125C49.1875 8 48.875 7.6875 48.875 7.0625ZM60.875 17.6562V15.5938H60.4062C60.0938 15.5938 59.9375 15.75 59.9375 16.0625V17.6562C59.9375 17.9688 60.0938 18.125 60.4062 18.125C60.7188 18.125 60.875 17.9688 60.875 17.6562ZM65.9375 17.75C65.9375 20.25 64.6875 21.5 62.1875 21.5H58.625C56.125 21.5 54.875 20.25 54.875 17.75V15.9688C54.875 13.4688 56.125 12.2188 58.625 12.2188H60.875V6.40625C60.875 5.78125 61.1875 5.46875 61.8125 5.46875H68.1875C68.8125 5.46875 69.125 5.78125 69.125 6.40625V7.90625C69.125 8.53125 68.8125 8.84375 68.1875 8.84375H65.9375V12.2188H68.1875C68.8125 12.2188 69.125 12.5312 69.125 13.1562V14.6562C69.125 15.2812 68.8125 15.5938 68.1875 15.5938H65.9375V17.75ZM94.5312 12.5938C94.5312 13.2188 94.2188 13.5312 93.5938 13.5312H91.8125C91.1875 13.5312 90.875 13.2188 90.875 12.5938V8.9375C90.875 8.3125 91.1875 8 91.8125 8H93.5938C94.2188 8 94.5312 8.3125 94.5312 8.9375V12.5938ZM89.9375 12.5938C89.9375 13.2188 89.625 13.5312 89 13.5312H87.2188C86.5938 13.5312 86.2812 13.2188 86.2812 12.5938V8.9375C86.2812 8.3125 86.5938 8 87.2188 8H89C89.625 8 89.9375 8.3125 89.9375 8.9375V12.5938ZM72.875 4.53125V3.03125C72.875 2.40625 73.1875 2.09375 73.8125 2.09375H92.1875C92.8125 2.09375 93.125 2.40625 93.125 3.03125V4.53125C93.125 5.15625 92.8125 5.46875 92.1875 5.46875H90.7578L89.2344 7.25H87.4062C86.1562 7.25 85.5312 7.875 85.5312 9.125V11.6094L84.8516 12.4062C84.3047 13.0312 83.8594 13.5938 83.5156 14.0938C83.1719 14.5938 83 15.1562 83 15.7812V17.1875C83 17.8125 83.3125 18.125 83.9375 18.125H90.3125C90.9375 18.125 91.25 18.4375 91.25 19.0625V20.5625C91.25 21.1875 90.9375 21.5 90.3125 21.5H81.6875C79.1875 21.5 77.9375 20.25 77.9375 17.75V15.1953C77.9375 14.1953 78.2422 13.2656 78.8516 12.4062L84.7578 5.46875H73.8125C73.1875 5.46875 72.875 5.15625 72.875 4.53125ZM99.5938 17.6562V18.5H100.531V17.6562H99.5938ZM97.3438 3.03125V2.1875C97.3438 1.5625 97.6562 1.25 98.2812 1.25H101.844C102.469 1.25 102.781 1.5625 102.781 2.1875V3.03125C102.781 3.65625 102.469 3.96875 101.844 3.96875H98.2812C97.6562 3.96875 97.3438 3.65625 97.3438 3.03125ZM96.875 6.59375V5.46875C96.875 4.84375 97.1875 4.53125 97.8125 4.53125H102.312C102.938 4.53125 103.25 4.84375 103.25 5.46875V6.59375C103.25 7.21875 102.938 7.53125 102.312 7.53125H97.8125C97.1875 7.53125 96.875 7.21875 96.875 6.59375ZM97.3438 9.875V9.03125C97.3438 8.40625 97.6562 8.09375 98.2812 8.09375H101.844C102.469 8.09375 102.781 8.40625 102.781 9.03125V9.875C102.781 10.5 102.469 10.8125 101.844 10.8125H98.2812C97.6562 10.8125 97.3438 10.5 97.3438 9.875ZM97.3438 13.1562V12.3125C97.3438 11.6875 97.6562 11.375 98.2812 11.375H101.844C102.469 11.375 102.781 11.6875 102.781 12.3125V13.1562C102.781 13.7812 102.469 14.0938 101.844 14.0938H98.2812C97.6562 14.0938 97.3438 13.7812 97.3438 13.1562ZM96.875 15.5938C96.875 14.9688 97.1875 14.6562 97.8125 14.6562H102.312C102.938 14.6562 103.25 14.9688 103.25 15.5938V20.5625C103.25 21.1875 102.938 21.5 102.312 21.5H97.8125C97.1875 21.5 96.875 21.1875 96.875 20.5625V15.5938ZM109.25 4.17969V2.67969C109.25 2.05469 109.562 1.69531 110.188 1.60156L116.188 0.804688C116.812 0.710938 117.125 0.976563 117.125 1.60156V3.10156C117.125 3.72656 116.812 4.08594 116.188 4.17969L115.719 4.25V7.15625H116.188C116.812 7.15625 117.125 7.46875 117.125 8.09375V9.59375C117.125 10.2188 116.812 10.5312 116.188 10.5312H115.719V13.9062H116.188C116.812 13.9062 117.125 14.2188 117.125 14.8438V16.3438C117.125 16.9688 116.812 17.2812 116.188 17.2812H110.188C109.562 17.2812 109.25 16.9688 109.25 16.3438V6.78125C109.25 6.15625 109.562 5.84375 110.188 5.84375H110.562C111.188 5.84375 111.5 6.15625 111.5 6.78125V13.9062H112.062V4.71875L110.188 4.97656C109.562 5.07031 109.25 4.80469 109.25 4.17969ZM103.273 20.5625L104.211 15.4531L103.414 14C103.086 13.375 103.234 13.0625 103.859 13.0625H104.656L104.961 11.375H104.188C103.562 11.375 103.25 11.0625 103.25 10.4375V9.21875C103.25 8.79688 103.328 8.39062 103.484 8L104.867 4.625H104.188C103.562 4.625 103.25 4.3125 103.25 3.6875V2.1875C103.25 1.5625 103.562 1.25 104.188 1.25H107.844C108.469 1.25 108.781 1.5625 108.781 2.1875V3.26562C108.781 3.73438 108.695 4.1875 108.523 4.625L107.141 8H107.844C108.469 8 108.781 8.3125 108.781 8.9375V9.64062C108.781 10.2188 108.727 10.7969 108.617 11.375L107.867 15.4531L109.344 18.125H116.188C116.812 18.125 117.125 18.4375 117.125 19.0625V20.5625C117.125 21.1875 116.812 21.5 116.188 21.5H108.453C107.828 21.5 107.352 21.1875 107.023 20.5625L106.953 20.4453L106.93 20.5625C106.805 21.1875 106.43 21.5 105.805 21.5H104.023C103.398 21.5 103.148 21.1875 103.273 20.5625ZM120.875 20.5625V19.0625C120.875 18.4375 121.188 18.125 121.812 18.125H128.469V13.9062H122.75C122.125 13.9062 121.812 13.5938 121.812 12.9688V11.4688C121.812 10.8438 122.125 10.5312 122.75 10.5312H128.469V7.15625H121.812C121.188 7.15625 120.875 6.84375 120.875 6.21875V1.71875C120.875 1.09375 121.188 0.78125 121.812 0.78125H125C125.625 0.78125 125.938 1.09375 125.938 1.71875V3.78125H128.469V1.71875C128.469 1.09375 128.781 0.78125 129.406 0.78125H132.594C133.219 0.78125 133.531 1.09375 133.531 1.71875V3.78125H140.188C140.812 3.78125 141.125 4.09375 141.125 4.71875V6.21875C141.125 6.84375 140.812 7.15625 140.188 7.15625H133.531V10.5312H139.25C139.875 10.5312 140.188 10.8438 140.188 11.4688V12.9688C140.188 13.5938 139.875 13.9062 139.25 13.9062H133.531V18.125H140.188C140.812 18.125 141.125 18.4375 141.125 19.0625V20.5625C141.125 21.1875 140.812 21.5 140.188 21.5H121.812C121.188 21.5 120.875 21.1875 120.875 20.5625ZM145.812 20.5625V2.1875C145.812 1.5625 146.125 1.25 146.75 1.25H163.25C163.875 1.25 164.188 1.5625 164.188 2.1875V20.5625C164.188 21.1875 163.875 21.5 163.25 21.5H146.75C146.125 21.5 145.812 21.1875 145.812 20.5625ZM150.875 9.6875H159.125V4.625H150.875V9.6875ZM150.875 18.125H159.125V13.0625H150.875V18.125ZM168.875 6.21875V4.71875C168.875 4.09375 169.188 3.78125 169.812 3.78125H174.688L175.742 2.1875C176.164 1.5625 176.688 1.25 177.312 1.25H180.875C181.5 1.25 181.602 1.5625 181.18 2.1875L180.125 3.78125H187.062C187.688 3.78125 188 4.09375 188 4.71875V6.21875C188 6.84375 187.688 7.15625 187.062 7.15625H177.875L177.312 8H181.25C183.344 8 184.562 8.875 184.906 10.625L188.188 9.73438C188.812 9.5625 189.125 9.78906 189.125 10.4141V12.2891C189.125 12.9141 188.812 13.3125 188.188 13.4844L185 14.3516V16.25C185 16.875 184.688 17.1875 184.062 17.1875H180.875C180.25 17.1875 179.938 16.875 179.938 16.25V15.7109L178.531 16.0859C178.219 16.1797 178.062 16.3828 178.062 16.6953V17.1875C178.062 17.8125 178.375 18.125 179 18.125H186.781C187.406 18.125 187.719 18.4375 187.719 19.0625V20.5625C187.719 21.1875 187.406 21.5 186.781 21.5H176.75C174.25 21.5 173 20.25 173 17.75V16.6484C173 14.7891 173.844 13.625 175.531 13.1562L179.891 11.9609C179.797 11.5703 179.5 11.375 179 11.375H175.062L174.57 12.125C174.148 12.75 173.625 13.0625 173 13.0625H169.438C168.812 13.0625 168.711 12.75 169.133 12.125L172.438 7.15625H169.812C169.188 7.15625 168.875 6.84375 168.875 6.21875ZM192.875 7.0625V5.5625C192.875 4.9375 193.188 4.625 193.812 4.625H198.875V2.1875C198.875 1.5625 199.188 1.25 199.812 1.25H203C203.625 1.25 203.938 1.5625 203.938 2.1875V4.625H205.531C206.156 4.625 206.469 4.9375 206.469 5.5625V7.0625C206.469 7.6875 206.156 8 205.531 8H203.938V9.6875H209.375C211.875 9.6875 213.125 10.9375 213.125 13.4375V17.75C213.125 20.25 211.875 21.5 209.375 21.5H206.188C205.562 21.5 205.25 21.1875 205.25 20.5625V19.0625C205.25 18.4375 205.562 18.125 206.188 18.125H207.125C207.75 18.125 208.062 17.8125 208.062 17.1875V14C208.062 13.375 207.75 13.0625 207.125 13.0625H203.938V17.75C203.938 20.25 202.688 21.5 200.188 21.5H196.625C194.125 21.5 192.875 20.25 192.875 17.75V13.4375C192.875 10.9375 194.125 9.6875 196.625 9.6875H198.875V8H193.812C193.188 8 192.875 7.6875 192.875 7.0625ZM198.875 17.6562V13.0625H198.406C198.094 13.0625 197.938 13.2188 197.938 13.5312V17.6562C197.938 17.9688 198.094 18.125 198.406 18.125C198.719 18.125 198.875 17.9688 198.875 17.6562ZM208.039 7.8125L207.148 2.1875C207.039 1.5625 207.297 1.25 207.922 1.25H211.109C211.734 1.25 212.102 1.5625 212.211 2.1875L213.102 7.8125C213.211 8.4375 212.953 8.75 212.328 8.75H209.141C208.516 8.75 208.148 8.4375 208.039 7.8125ZM2.46875 44.5625V39.0781L1.8125 39.8516C1.1875 40.5703 0.875 40.6172 0.875 39.9922V36.9922C0.875 36.3672 1.1875 35.6953 1.8125 34.9766L5.09375 31.1562H1.8125C1.1875 31.1562 0.875 30.8438 0.875 30.2188V28.7188C0.875 28.0938 1.1875 27.7812 1.8125 27.7812H2.46875V25.7188C2.46875 25.0938 2.78125 24.7812 3.40625 24.7812H6.59375C7.21875 24.7812 7.53125 25.0938 7.53125 25.7188V27.7812H8.1875C8.8125 27.7812 9.125 28.0938 9.125 28.7188V30.3828C9.125 31.0078 8.8125 31.6797 8.1875 32.3984L7.08594 33.6875L8.1875 34.9766C8.8125 35.6953 9.125 36.3672 9.125 36.9922V39.9922C9.125 40.6172 8.8125 40.5703 8.1875 39.8516L7.53125 39.0781V44.5625C7.53125 45.1875 7.21875 45.5 6.59375 45.5H3.40625C2.78125 45.5 2.46875 45.1875 2.46875 44.5625ZM9.125 44.5625L10.5312 36.2188C9.90625 36.2188 9.59375 35.9062 9.59375 35.2812V26.1875C9.59375 25.5625 9.90625 25.25 10.5312 25.25H20.1875C20.8125 25.25 21.125 25.5625 21.125 26.1875V35.2812C21.125 35.9062 20.8125 36.2188 20.1875 36.2188V42.125C20.8125 42.125 21.125 42.4375 21.125 43.0625V44.5625C21.125 45.1875 20.8125 45.5 20.1875 45.5H16.5312C15.9062 45.5 15.5938 45.1875 15.5938 44.5625V36.2188H15.125L13.7188 44.5625C13.625 45.1875 13.2656 45.5 12.6406 45.5H9.92188C9.29688 45.5 9.03125 45.1875 9.125 44.5625ZM14.6562 32.8438H16.0625V28.625H14.6562V32.8438ZM36.4062 27.0312C36.4062 26.4062 36.7188 26.0938 37.3438 26.0938H41.375C43.875 26.0938 45.125 27.3438 45.125 29.8438V42.875C45.125 43.5 44.8125 43.8125 44.1875 43.8125H41C40.375 43.8125 40.0625 43.5 40.0625 42.875V30.4062C40.0625 29.7812 39.75 29.4688 39.125 29.4688H37.3438C36.7188 29.4688 36.4062 29.1562 36.4062 28.5312V27.0312ZM33.5938 44.5625C33.5938 45.1875 33.2812 45.5 32.6562 45.5H28.625C26.125 45.5 24.875 44.25 24.875 41.75V27.0312C24.875 26.4062 25.1875 26.0938 25.8125 26.0938H29C29.625 26.0938 29.9375 26.4062 29.9375 27.0312V41.1875C29.9375 41.8125 30.25 42.125 30.875 42.125H32.6562C33.2812 42.125 33.5938 42.4375 33.5938 43.0625V44.5625ZM61.8594 42.125C62.4844 42.125 62.7969 41.8125 62.7969 41.1875V36.3125C62.7969 35.6875 63.1094 35.375 63.7344 35.375H66.9219C67.5469 35.375 67.8594 35.6875 67.8594 36.3125V41.75C67.8594 44.25 66.6094 45.5 64.1094 45.5H53.8906C51.3906 45.5 50.1406 44.25 50.1406 41.75V26.1875C50.1406 25.5625 50.4531 25.25 51.0781 25.25H54.2656C54.8906 25.25 55.2031 25.5625 55.2031 26.1875V41.1875C55.2031 41.8125 55.5156 42.125 56.1406 42.125H61.8594ZM80.4688 26.1875C80.4688 25.5625 80.7812 25.25 81.4062 25.25H84.5938C85.2188 25.25 85.5312 25.5625 85.5312 26.1875V28.625H91.25C91.875 28.625 92.1875 28.9375 92.1875 29.5625V31.0625C92.1875 31.6875 91.875 32 91.25 32H85.5312V36.4297L92.1875 39.1953C92.8125 39.4609 93.125 39.9062 93.125 40.5312V42.4062C93.125 43.0312 92.8125 43.2109 92.1875 42.9453L85.5312 40.1797V41.75C85.5312 44.25 84.2812 45.5 81.7812 45.5H76.625C74.125 45.5 72.875 44.25 72.875 41.75V39.9688C72.875 37.4688 74.125 36.2188 76.625 36.2188H80.4688V26.1875ZM80.4688 41.6562V40.0625C80.4688 39.75 80.3125 39.5938 80 39.5938H78.4062C78.0938 39.5938 77.9375 39.75 77.9375 40.0625V41.6562C77.9375 41.9688 78.0938 42.125 78.4062 42.125H80C80.3125 42.125 80.4688 41.9688 80.4688 41.6562ZM112.109 45.5H100.953C100.328 45.5 100.016 45.1875 100.016 44.5625V43.0625C100.016 42.4375 100.328 42.125 100.953 42.125H109.859C110.484 42.125 110.797 41.8125 110.797 41.1875V34.625C110.797 34 110.484 33.6875 109.859 33.6875H99.0781C98.4531 33.6875 98.1406 33.375 98.1406 32.75V31.25C98.1406 30.625 98.4531 30.3125 99.0781 30.3125H112.109C114.609 30.3125 115.859 31.5625 115.859 34.0625V41.75C115.859 44.25 114.609 45.5 112.109 45.5ZM100.672 27.6875V26.1875C100.672 25.5625 100.984 25.25 101.609 25.25H112.391C113.016 25.25 113.328 25.5625 113.328 26.1875V27.6875C113.328 28.3125 113.016 28.625 112.391 28.625H101.609C100.984 28.625 100.672 28.3125 100.672 27.6875ZM128.469 26.1875C128.469 25.5625 128.781 25.25 129.406 25.25H132.594C133.219 25.25 133.531 25.5625 133.531 26.1875V39.0312C133.531 39.6562 133.219 39.9688 132.594 39.9688H129.406C128.781 39.9688 128.469 39.6562 128.469 39.0312V26.1875ZM128.469 42.3125C128.469 41.6875 128.781 41.375 129.406 41.375H132.594C133.219 41.375 133.531 41.6875 133.531 42.3125V44.5625C133.531 45.1875 133.219 45.5 132.594 45.5H129.406C128.781 45.5 128.469 45.1875 128.469 44.5625V42.3125ZM152.469 26.1875C152.469 25.5625 152.781 25.25 153.406 25.25H156.594C157.219 25.25 157.531 25.5625 157.531 26.1875V39.0312C157.531 39.6562 157.219 39.9688 156.594 39.9688H153.406C152.781 39.9688 152.469 39.6562 152.469 39.0312V26.1875ZM152.469 42.3125C152.469 41.6875 152.781 41.375 153.406 41.375H156.594C157.219 41.375 157.531 41.6875 157.531 42.3125V44.5625C157.531 45.1875 157.219 45.5 156.594 45.5H153.406C152.781 45.5 152.469 45.1875 152.469 44.5625V42.3125Z" fill="black"/>
</svg>
