<svg width="166" height="47" viewBox="0 0 166 47" fill="none" xmlns="http://www.w3.org/2000/svg">
<path d="M3.40625 21.5625V20.0625C3.40625 19.4375 3.71875 19.125 4.34375 19.125H12.3125C14.8125 19.125 16.0625 17.875 16.0625 15.375V8.41406C16.7969 8.86719 17.625 9.09375 18.5469 9.09375C19.5156 9.09375 20.375 8.84375 21.125 8.34375V15.9375C21.125 20.3125 18.9375 22.5 14.5625 22.5H4.34375C3.71875 22.5 3.40625 22.1875 3.40625 21.5625ZM13.8125 4.35938C13.8125 4.79687 13.8672 5.21875 13.9766 5.625H1.8125C1.1875 5.625 0.875 5.3125 0.875 4.6875V3.1875C0.875 2.5625 1.1875 2.25 1.8125 2.25H14.2812C13.9688 2.89063 13.8125 3.59375 13.8125 4.35938ZM22.5312 4.35938C22.5312 5.46875 22.1406 6.41406 21.3594 7.19531C20.5938 7.96094 19.6562 8.34375 18.5469 8.34375C17.4375 8.34375 16.4922 7.96094 15.7109 7.19531C14.9453 6.41406 14.5625 5.46875 14.5625 4.35938C14.5625 3.25 14.9453 2.3125 15.7109 1.54688C16.4922 0.765625 17.4375 0.375 18.5469 0.375C19.6562 0.375 20.5938 0.765625 21.3594 1.54688C22.1406 2.3125 22.5312 3.25 22.5312 4.35938ZM19.5312 4.35938C19.5312 4.07812 19.4375 3.84375 19.25 3.65625C19.0625 3.46875 18.8281 3.375 18.5469 3.375C18.2656 3.375 18.0312 3.46875 17.8438 3.65625C17.6562 3.84375 17.5625 4.07812 17.5625 4.35938C17.5625 4.64062 17.6562 4.875 17.8438 5.0625C18.0312 5.25 18.2656 5.34375 18.5469 5.34375C18.8281 5.34375 19.0625 5.25 19.25 5.0625C19.4375 4.875 19.5312 4.64062 19.5312 4.35938ZM24.875 3.1875C24.875 2.5625 25.1875 2.25 25.8125 2.25H44.1875C44.8125 2.25 45.125 2.5625 45.125 3.1875V21.5625C45.125 22.1875 44.8125 22.5 44.1875 22.5H25.8125C25.1875 22.5 24.875 22.1875 24.875 21.5625V3.1875ZM29.9375 5.625V19.125H40.0625V5.625H29.9375ZM51.4062 21.5625V20.0625C51.4062 19.4375 51.7188 19.125 52.3438 19.125H60.3125C62.8125 19.125 64.0625 17.875 64.0625 15.375V5.625H49.8125C49.1875 5.625 48.875 5.3125 48.875 4.6875V3.1875C48.875 2.5625 49.1875 2.25 49.8125 2.25H68.1875C68.8125 2.25 69.125 2.5625 69.125 3.1875V15.9375C69.125 20.3125 66.9375 22.5 62.5625 22.5H52.3438C51.7188 22.5 51.4062 22.1875 51.4062 21.5625ZM75.4062 15.4688V14.3438C75.4062 13.875 75.6406 13.6406 76.1094 13.6406H86.0938C86.5625 13.6406 86.7969 13.4062 86.7969 12.9375V8.01562C86.7969 7.54688 87.0312 7.3125 87.5 7.3125H89.8906C90.3594 7.3125 90.5938 7.54688 90.5938 8.01562V13.3594C90.5938 15.2344 89.6562 16.1719 87.7812 16.1719H84.8984V21.7969C84.8984 22.2656 84.6641 22.5 84.1953 22.5H81.8047C81.3359 22.5 81.1016 22.2656 81.1016 21.7969V16.1719H76.1094C75.6406 16.1719 75.4062 15.9375 75.4062 15.4688ZM96.875 13.125V11.625C96.875 11 97.1875 10.6875 97.8125 10.6875H116.188C116.812 10.6875 117.125 11 117.125 11.625V13.125C117.125 13.75 116.812 14.0625 116.188 14.0625H97.8125C97.1875 14.0625 96.875 13.75 96.875 13.125ZM120.875 21.5625V20.0625C120.875 19.4375 121.188 19.125 121.812 19.125H122.281C122.906 19.125 123.219 18.8125 123.219 18.1875V2.71875C123.219 2.09375 123.531 1.78125 124.156 1.78125H127.344C127.969 1.78125 128.281 2.09375 128.281 2.71875V18.75C128.281 21.25 127.031 22.5 124.531 22.5H121.812C121.188 22.5 120.875 22.1875 120.875 21.5625ZM134.281 2.71875V19.125H135.125C135.75 19.125 136.062 18.8125 136.062 18.1875V9.9375C136.062 9.3125 136.375 9 137 9H140.188C140.812 9 141.125 9.3125 141.125 9.9375V18.75C141.125 21.25 139.875 22.5 137.375 22.5H130.156C129.531 22.5 129.219 22.1875 129.219 21.5625V2.71875C129.219 2.09375 129.531 1.78125 130.156 1.78125H133.344C133.969 1.78125 134.281 2.09375 134.281 2.71875ZM144.875 7.21875V5.71875C144.875 5.09375 145.188 4.78125 145.812 4.78125H150.688L151.742 3.1875C152.164 2.5625 152.688 2.25 153.312 2.25H156.875C157.5 2.25 157.602 2.5625 157.18 3.1875L156.125 4.78125H163.062C163.688 4.78125 164 5.09375 164 5.71875V7.21875C164 7.84375 163.688 8.15625 163.062 8.15625H153.875L153.312 9H157.25C159.344 9 160.562 9.875 160.906 11.625L164.188 10.7344C164.812 10.5625 165.125 10.7891 165.125 11.4141V13.2891C165.125 13.9141 164.812 14.3125 164.188 14.4844L161 15.3516V17.25C161 17.875 160.688 18.1875 160.062 18.1875H156.875C156.25 18.1875 155.938 17.875 155.938 17.25V16.7109L154.531 17.0859C154.219 17.1797 154.062 17.3828 154.062 17.6953V18.1875C154.062 18.8125 154.375 19.125 155 19.125H162.781C163.406 19.125 163.719 19.4375 163.719 20.0625V21.5625C163.719 22.1875 163.406 22.5 162.781 22.5H152.75C150.25 22.5 149 21.25 149 18.75V17.6484C149 15.7891 149.844 14.625 151.531 14.1562L155.891 12.9609C155.797 12.5703 155.5 12.375 155 12.375H151.062L150.57 13.125C150.148 13.75 149.625 14.0625 149 14.0625H145.438C144.812 14.0625 144.711 13.75 145.133 13.125L148.438 8.15625H145.812C145.188 8.15625 144.875 7.84375 144.875 7.21875ZM11 26.25H20.1875C20.8125 26.25 21.125 26.5625 21.125 27.1875V35.4375C21.125 36.0625 20.8125 36.375 20.1875 36.375H15.125V43.125H20.1875C20.8125 43.125 21.125 43.4375 21.125 44.0625V45.5625C21.125 46.1875 20.8125 46.5 20.1875 46.5H11C10.375 46.5 10.0625 46.1875 10.0625 45.5625V33.9375C10.0625 33.3125 10.375 33 11 33H16.0625V29.625H11C10.375 29.625 10.0625 29.3125 10.0625 28.6875V27.1875C10.0625 26.5625 10.375 26.25 11 26.25ZM4.53125 42.6562V43.5H5.9375V42.6562H4.53125ZM1.34375 28.0312V27.1875C1.34375 26.5625 1.65625 26.25 2.28125 26.25H8.1875C8.8125 26.25 9.125 26.5625 9.125 27.1875V28.0312C9.125 28.6562 8.8125 28.9688 8.1875 28.9688H2.28125C1.65625 28.9688 1.34375 28.6562 1.34375 28.0312ZM0.875 31.5938V30.4688C0.875 29.8438 1.1875 29.5312 1.8125 29.5312H8.65625C9.28125 29.5312 9.59375 29.8438 9.59375 30.4688V31.5938C9.59375 32.2188 9.28125 32.5312 8.65625 32.5312H1.8125C1.1875 32.5312 0.875 32.2188 0.875 31.5938ZM1.34375 34.875V34.0312C1.34375 33.4062 1.65625 33.0938 2.28125 33.0938H8.1875C8.8125 33.0938 9.125 33.4062 9.125 34.0312V34.875C9.125 35.5 8.8125 35.8125 8.1875 35.8125H2.28125C1.65625 35.8125 1.34375 35.5 1.34375 34.875ZM1.34375 38.1562V37.3125C1.34375 36.6875 1.65625 36.375 2.28125 36.375H8.1875C8.8125 36.375 9.125 36.6875 9.125 37.3125V38.1562C9.125 38.7812 8.8125 39.0938 8.1875 39.0938H2.28125C1.65625 39.0938 1.34375 38.7812 1.34375 38.1562ZM0.875 40.5938C0.875 39.9688 1.1875 39.6562 1.8125 39.6562H8.65625C9.28125 39.6562 9.59375 39.9688 9.59375 40.5938V45.5625C9.59375 46.1875 9.28125 46.5 8.65625 46.5H1.8125C1.1875 46.5 0.875 46.1875 0.875 45.5625V40.5938ZM24.9688 45.5625L31.3203 29.625H26.75C26.125 29.625 25.8125 29.3125 25.8125 28.6875V27.1875C25.8125 26.5625 26.125 26.25 26.75 26.25H36.4297C37.0547 26.25 37.4844 26.5625 37.7188 27.1875L45.0312 45.5625C45.2656 46.1875 45.0703 46.5 44.4453 46.5H41.2578C40.6328 46.5 40.2031 46.1875 39.9688 45.5625L35 33.0703L30.0312 45.5625C29.7969 46.1875 29.3672 46.5 28.7422 46.5H25.5547C24.9297 46.5 24.7344 46.1875 24.9688 45.5625ZM61.8594 43.125C62.4844 43.125 62.7969 42.8125 62.7969 42.1875V37.3125C62.7969 36.6875 63.1094 36.375 63.7344 36.375H66.9219C67.5469 36.375 67.8594 36.6875 67.8594 37.3125V42.75C67.8594 45.25 66.6094 46.5 64.1094 46.5H53.8906C51.3906 46.5 50.1406 45.25 50.1406 42.75V27.1875C50.1406 26.5625 50.4531 26.25 51.0781 26.25H54.2656C54.8906 26.25 55.2031 26.5625 55.2031 27.1875V42.1875C55.2031 42.8125 55.5156 43.125 56.1406 43.125H61.8594ZM80.4688 27.1875C80.4688 26.5625 80.7812 26.25 81.4062 26.25H84.5938C85.2188 26.25 85.5312 26.5625 85.5312 27.1875V29.625H91.25C91.875 29.625 92.1875 29.9375 92.1875 30.5625V32.0625C92.1875 32.6875 91.875 33 91.25 33H85.5312V37.4297L92.1875 40.1953C92.8125 40.4609 93.125 40.9062 93.125 41.5312V43.4062C93.125 44.0312 92.8125 44.2109 92.1875 43.9453L85.5312 41.1797V42.75C85.5312 45.25 84.2812 46.5 81.7812 46.5H76.625C74.125 46.5 72.875 45.25 72.875 42.75V40.9688C72.875 38.4688 74.125 37.2188 76.625 37.2188H80.4688V27.1875ZM80.4688 42.6562V41.0625C80.4688 40.75 80.3125 40.5938 80 40.5938H78.4062C78.0938 40.5938 77.9375 40.75 77.9375 41.0625V42.6562C77.9375 42.9688 78.0938 43.125 78.4062 43.125H80C80.3125 43.125 80.4688 42.9688 80.4688 42.6562ZM112.109 46.5H100.953C100.328 46.5 100.016 46.1875 100.016 45.5625V44.0625C100.016 43.4375 100.328 43.125 100.953 43.125H109.859C110.484 43.125 110.797 42.8125 110.797 42.1875V35.625C110.797 35 110.484 34.6875 109.859 34.6875H99.0781C98.4531 34.6875 98.1406 34.375 98.1406 33.75V32.25C98.1406 31.625 98.4531 31.3125 99.0781 31.3125H112.109C114.609 31.3125 115.859 32.5625 115.859 35.0625V42.75C115.859 45.25 114.609 46.5 112.109 46.5ZM100.672 28.6875V27.1875C100.672 26.5625 100.984 26.25 101.609 26.25H112.391C113.016 26.25 113.328 26.5625 113.328 27.1875V28.6875C113.328 29.3125 113.016 29.625 112.391 29.625H101.609C100.984 29.625 100.672 29.3125 100.672 28.6875Z" fill="black"/>
</svg>
